<svg xmlns="http://www.w3.org/2000/svg" viewBox="0 0 121.406 29.085" role="img" aria-label="Huddle">
  <title>Huddle</title>
  <!-- Outlined paths generated from Inter-ExtraBold (no font dependency; identical across devices) -->
  <g transform="translate(0.074 -7.264)">
    <path d="M7.786 34L1.926 34L1.926 9.264L7.786 9.264L7.786 18.976L17.664 18.976L17.664 9.264L23.508 9.264L23.508 34L17.664 34L17.664 23.757L7.786 23.757L7.786 34ZM33.801 34.232L33.801 34.232Q30.879 34.232 29.119 32.323Q27.359 30.414 27.359 27.260L27.359 27.260L27.359 15.439L33.153 15.439L33.153 26.131Q33.153 27.691 33.958 28.580Q34.764 29.468 36.175 29.468L36.175 29.468Q37.603 29.468 38.474 28.563Q39.346 27.658 39.346 26.031L39.346 26.031L39.346 15.439L45.140 15.439L45.140 34L39.694 34L39.611 29.982Q38.864 31.925 37.453 33.079Q36.042 34.232 33.801 34.232ZM55.682 34.266L55.682 34.266Q53.623 34.266 51.930 33.195Q50.236 32.124 49.240 30.007Q48.244 27.891 48.244 24.736L48.244 24.736Q48.244 21.482 49.282 19.374Q50.319 17.266 52.004 16.236Q53.689 15.207 55.632 15.207L55.632 15.207Q57.109 15.207 58.155 15.713Q59.201 16.220 59.874 17.008Q60.546 17.797 60.895 18.627L60.895 18.627L61.027 18.627L61.027 9.264L66.805 9.264L66.805 34L61.094 34L61.094 30.995L60.895 30.995Q60.347 32.257 59.077 33.261Q57.807 34.266 55.682 34.266ZM57.657 29.750L57.657 29.750Q59.301 29.750 60.230 28.380Q61.160 27.011 61.160 24.736L61.160 24.736Q61.160 22.429 60.239 21.084Q59.317 19.739 57.657 19.739L57.657 19.739Q55.980 19.739 55.092 21.109Q54.204 22.479 54.204 24.736L54.204 24.736Q54.204 26.994 55.092 28.372Q55.980 29.750 57.657 29.750ZM77.363 34.266L77.363 34.266Q75.305 34.266 73.611 33.195Q71.918 32.124 70.922 30.007Q69.926 27.891 69.926 24.736L69.926 24.736Q69.926 21.482 70.963 19.374Q72.001 17.266 73.686 16.236Q75.371 15.207 77.313 15.207L77.313 15.207Q78.791 15.207 79.837 15.713Q80.883 16.220 81.555 17.008Q82.228 17.797 82.576 18.627L82.576 18.627L82.709 18.627L82.709 9.264L88.486 9.264L88.486 34L82.775 34L82.775 30.995L82.576 30.995Q82.028 32.257 80.758 33.261Q79.488 34.266 77.363 34.266ZM79.339 29.750L79.339 29.750Q80.982 29.750 81.912 28.380Q82.842 27.011 82.842 24.736L82.842 24.736Q82.842 22.429 81.920 21.084Q80.999 19.739 79.339 19.739L79.339 19.739Q77.662 19.739 76.774 21.109Q75.886 22.479 75.886 24.736L75.886 24.736Q75.886 26.994 76.774 28.372Q77.662 29.750 79.339 29.750ZM92.321 9.264L98.115 9.264L98.115 34L92.321 34L92.321 9.264ZM110.600 34.349L110.600 34.349Q106.233 34.349 103.735 31.800Q101.236 29.252 101.236 24.786L101.236 24.786Q101.236 21.931 102.357 19.772Q103.478 17.614 105.536 16.411Q107.595 15.207 110.384 15.207L110.384 15.207Q112.990 15.207 115.007 16.294Q117.024 17.382 118.178 19.499Q119.332 21.615 119.332 24.670L119.332 24.670L119.332 26.131L106.931 26.131Q107.014 28.140 108.035 29.144Q109.056 30.148 110.699 30.148L110.699 30.148Q111.861 30.148 112.708 29.659Q113.555 29.169 113.903 28.239L113.903 28.239L119.066 29.086Q118.369 31.493 116.169 32.921Q113.970 34.349 110.600 34.349ZM106.964 22.761L106.964 22.761L113.837 22.761Q113.671 21.184 112.808 20.295Q111.944 19.407 110.434 19.407L110.434 19.407Q108.906 19.407 108.018 20.312Q107.130 21.217 106.964 22.761Z" fill="currentColor"/>
  </g>
</svg>

